<svg xmlns="http://www.w3.org/2000/svg" xmlns:xlink="http://www.w3.org/1999/xlink" width="375" zoomAndPan="magnify" viewBox="0 0 375 149.999998" height="150" preserveAspectRatio="xMidYMid meet" version="1.0"><defs><g/><clipPath id="546e2af130"><path d="M 234.636719 33.132812 L 256.570312 33.132812 L 256.570312 55.070312 L 234.636719 55.070312 Z M 234.636719 33.132812 " clip-rule="nonzero"/></clipPath><clipPath id="8a896504b1"><path d="M 245.601562 33.132812 C 239.546875 33.132812 234.636719 38.042969 234.636719 44.101562 C 234.636719 50.160156 239.546875 55.070312 245.601562 55.070312 C 251.660156 55.070312 256.570312 50.160156 256.570312 44.101562 C 256.570312 38.042969 251.660156 33.132812 245.601562 33.132812 Z M 245.601562 33.132812 " clip-rule="nonzero"/></clipPath><clipPath id="5a8d791797"><path d="M 234.636719 61.972656 L 256.570312 61.972656 L 256.570312 83.910156 L 234.636719 83.910156 Z M 234.636719 61.972656 " clip-rule="nonzero"/></clipPath><clipPath id="84fe7ab16b"><path d="M 245.601562 61.972656 C 239.546875 61.972656 234.636719 66.882812 234.636719 72.941406 C 234.636719 79 239.546875 83.910156 245.601562 83.910156 C 251.660156 83.910156 256.570312 79 256.570312 72.941406 C 256.570312 66.882812 251.660156 61.972656 245.601562 61.972656 Z M 245.601562 61.972656 " clip-rule="nonzero"/></clipPath><clipPath id="09d0a236f7"><path d="M 234.636719 90.816406 L 256.570312 90.816406 L 256.570312 112.75 L 234.636719 112.75 Z M 234.636719 90.816406 " clip-rule="nonzero"/></clipPath><clipPath id="aab2cd86ee"><path d="M 245.601562 90.816406 C 239.546875 90.816406 234.636719 95.726562 234.636719 101.78125 C 234.636719 107.839844 239.546875 112.75 245.601562 112.75 C 251.660156 112.75 256.570312 107.839844 256.570312 101.78125 C 256.570312 95.726562 251.660156 90.816406 245.601562 90.816406 Z M 245.601562 90.816406 " clip-rule="nonzero"/></clipPath><clipPath id="984dda59c3"><path d="M 266.605469 36.828125 L 281.144531 36.828125 L 281.144531 51.371094 L 266.605469 51.371094 Z M 266.605469 36.828125 " clip-rule="nonzero"/></clipPath><clipPath id="973ee63fc7"><path d="M 273.875 36.828125 C 269.859375 36.828125 266.605469 40.085938 266.605469 44.101562 C 266.605469 48.117188 269.859375 51.371094 273.875 51.371094 C 277.890625 51.371094 281.144531 48.117188 281.144531 44.101562 C 281.144531 40.085938 277.890625 36.828125 273.875 36.828125 Z M 273.875 36.828125 " clip-rule="nonzero"/></clipPath><clipPath id="0b4f29a6ef"><path d="M 266.605469 65.671875 L 281.144531 65.671875 L 281.144531 80.214844 L 266.605469 80.214844 Z M 266.605469 65.671875 " clip-rule="nonzero"/></clipPath><clipPath id="9ef3184975"><path d="M 273.875 65.671875 C 269.859375 65.671875 266.605469 68.925781 266.605469 72.941406 C 266.605469 76.957031 269.859375 80.214844 273.875 80.214844 C 277.890625 80.214844 281.144531 76.957031 281.144531 72.941406 C 281.144531 68.925781 277.890625 65.671875 273.875 65.671875 Z M 273.875 65.671875 " clip-rule="nonzero"/></clipPath><clipPath id="33dc8492d9"><path d="M 266.605469 94.511719 L 281.144531 94.511719 L 281.144531 109.054688 L 266.605469 109.054688 Z M 266.605469 94.511719 " clip-rule="nonzero"/></clipPath><clipPath id="b4749453a2"><path d="M 273.875 94.511719 C 269.859375 94.511719 266.605469 97.765625 266.605469 101.78125 C 266.605469 105.796875 269.859375 109.054688 273.875 109.054688 C 277.890625 109.054688 281.144531 105.796875 281.144531 101.78125 C 281.144531 97.765625 277.890625 94.511719 273.875 94.511719 Z M 273.875 94.511719 " clip-rule="nonzero"/></clipPath></defs><g fill="#ffffff" fill-opacity="1"><g transform="translate(29.797855, 111.100253)"><g><path d="M 56.203125 -39.296875 C 60.128906 -34.628906 62.09375 -29.394531 62.09375 -23.59375 C 61.96875 -16.925781 59.6875 -11.34375 55.25 -6.84375 C 50.8125 -2.34375 45.425781 -0.09375 39.09375 -0.09375 L 12.796875 -0.09375 C 8.128906 -0.09375 5.394531 -1.363281 4.59375 -3.90625 C 4.195312 -5.03125 4 -6.757812 4 -9.09375 L 4 -64.59375 C 4 -66.195312 4.046875 -67.363281 4.140625 -68.09375 C 4.242188 -68.832031 4.5625 -69.703125 5.09375 -70.703125 C 6.03125 -72.503906 8.632812 -73.40625 12.90625 -73.40625 L 38.09375 -73.40625 C 44.226562 -73.40625 49.363281 -71.269531 53.5 -67 C 57.832031 -62.664062 60 -57.46875 60 -51.40625 C 60 -47 58.734375 -42.960938 56.203125 -39.296875 Z M 44.40625 -24.59375 C 44.40625 -26.195312 44.21875 -27.460938 43.84375 -28.390625 C 43.476562 -29.328125 42.863281 -30 42 -30.40625 C 40.664062 -30.9375 38.796875 -31.203125 36.390625 -31.203125 C 33.992188 -31.203125 32.195312 -31.664062 31 -32.59375 C 29.800781 -33.53125 29.203125 -35.445312 29.203125 -38.34375 C 29.203125 -41.25 29.816406 -43.164062 31.046875 -44.09375 C 32.285156 -45.03125 34.335938 -45.5 37.203125 -45.5 C 39.867188 -45.5 41.46875 -46.195312 42 -47.59375 C 42.195312 -48.332031 42.296875 -49.535156 42.296875 -51.203125 C 42.296875 -52.867188 41.742188 -54.035156 40.640625 -54.703125 C 39.546875 -55.367188 37.898438 -55.703125 35.703125 -55.703125 L 21.703125 -55.703125 L 21.703125 -17.796875 L 38.09375 -17.796875 C 42.300781 -17.796875 44.40625 -20.0625 44.40625 -24.59375 Z M 44.40625 -24.59375 "/></g></g></g><g fill="#ffffff" fill-opacity="1"><g transform="translate(95.891587, 111.100253)"><g><path d="M 39.796875 -52.09375 C 41.066406 -51.695312 42.117188 -51.015625 42.953125 -50.046875 C 43.785156 -49.078125 44.203125 -47.523438 44.203125 -45.390625 C 44.203125 -43.265625 43.566406 -40.929688 42.296875 -38.390625 C 41.035156 -35.859375 39.203125 -34.59375 36.796875 -34.59375 C 35.597656 -34.59375 34.445312 -34.859375 33.34375 -35.390625 C 32.25 -35.929688 30.800781 -36.203125 29 -36.203125 C 27.195312 -36.203125 25.507812 -35.566406 23.9375 -34.296875 C 22.375 -33.035156 21.59375 -31.503906 21.59375 -29.703125 L 21.59375 -8.703125 C 21.59375 -7.171875 21.539062 -6.019531 21.4375 -5.25 C 21.34375 -4.476562 21.03125 -3.59375 20.5 -2.59375 C 19.5 -0.863281 16.898438 0 12.703125 0 C 9.503906 0 7.203125 -0.566406 5.796875 -1.703125 C 4.734375 -2.628906 4.132812 -4.0625 4 -6 C 4 -6.664062 4 -7.632812 4 -8.90625 L 4 -44 C 4 -45.53125 4.046875 -46.675781 4.140625 -47.4375 C 4.242188 -48.207031 4.53125 -49.0625 5 -50 C 5.9375 -51.800781 8.535156 -52.703125 12.796875 -52.703125 C 16.796875 -52.703125 19.296875 -51.9375 20.296875 -50.40625 C 21.035156 -49.332031 21.40625 -48.226562 21.40625 -47.09375 C 21.738281 -47.5625 22.21875 -48.128906 22.84375 -48.796875 C 23.476562 -49.460938 24.828125 -50.363281 26.890625 -51.5 C 28.960938 -52.632812 30.78125 -53.203125 32.34375 -53.203125 C 33.914062 -53.203125 35.234375 -53.117188 36.296875 -52.953125 C 37.367188 -52.785156 38.535156 -52.5 39.796875 -52.09375 Z M 39.796875 -52.09375 "/></g></g></g><g fill="#ffffff" fill-opacity="1"><g transform="translate(143.087148, 111.100253)"><g><path d="M 38.203125 -47.09375 C 38.597656 -50.832031 41.226562 -52.703125 46.09375 -52.703125 C 48.695312 -52.703125 50.628906 -52.5 51.890625 -52.09375 C 53.160156 -51.695312 54.046875 -51 54.546875 -50 C 55.046875 -49 55.34375 -48.113281 55.4375 -47.34375 C 55.539062 -46.582031 55.59375 -45.4375 55.59375 -43.90625 L 55.59375 -8.90625 C 55.59375 -7.363281 55.539062 -6.207031 55.4375 -5.4375 C 55.34375 -4.675781 55.0625 -3.796875 54.59375 -2.796875 C 53.664062 -1.066406 51.382812 -0.203125 47.75 -0.203125 C 44.113281 -0.203125 41.675781 -0.648438 40.4375 -1.546875 C 39.207031 -2.453125 38.492188 -3.769531 38.296875 -5.5 C 35.828125 -1.96875 31.707031 -0.203125 25.9375 -0.203125 C 20.175781 -0.203125 14.828125 -2.832031 9.890625 -8.09375 C 4.960938 -13.363281 2.5 -19.484375 2.5 -26.453125 C 2.5 -33.421875 4.984375 -39.519531 9.953125 -44.75 C 14.921875 -49.976562 20.367188 -52.59375 26.296875 -52.59375 C 28.566406 -52.59375 30.632812 -52.191406 32.5 -51.390625 C 34.363281 -50.597656 35.660156 -49.847656 36.390625 -49.140625 C 37.128906 -48.441406 37.734375 -47.757812 38.203125 -47.09375 Z M 20 -26.296875 C 20 -24.097656 20.863281 -22.113281 22.59375 -20.34375 C 24.332031 -18.582031 26.429688 -17.703125 28.890625 -17.703125 C 31.359375 -17.703125 33.410156 -18.597656 35.046875 -20.390625 C 36.679688 -22.191406 37.5 -24.175781 37.5 -26.34375 C 37.5 -28.507812 36.710938 -30.523438 35.140625 -32.390625 C 33.578125 -34.265625 31.476562 -35.203125 28.84375 -35.203125 C 26.21875 -35.203125 24.085938 -34.265625 22.453125 -32.390625 C 20.816406 -30.523438 20 -28.492188 20 -26.296875 Z M 20 -26.296875 "/></g></g></g><g fill="#ffffff" fill-opacity="1"><g transform="translate(204.181371, 111.100253)"><g><path d="M 4 -43.90625 C 4 -45.4375 4.046875 -46.582031 4.140625 -47.34375 C 4.242188 -48.113281 4.53125 -49 5 -50 C 5.9375 -51.726562 8.535156 -52.59375 12.796875 -52.59375 C 15.992188 -52.59375 18.257812 -52.03125 19.59375 -50.90625 C 20.726562 -49.96875 21.332031 -48.53125 21.40625 -46.59375 C 21.46875 -45.925781 21.5 -44.960938 21.5 -43.703125 L 21.5 -8.703125 C 21.5 -7.171875 21.445312 -6.019531 21.34375 -5.25 C 21.25 -4.476562 20.9375 -3.59375 20.40625 -2.59375 C 19.53125 -0.863281 16.960938 0 12.703125 0 C 8.503906 0 5.9375 -0.898438 5 -2.703125 C 4.53125 -3.703125 4.242188 -4.566406 4.140625 -5.296875 C 4.046875 -6.035156 4 -7.203125 4 -8.796875 Z M 20.453125 -62.453125 C 19.953125 -61.484375 19.066406 -60.796875 17.796875 -60.390625 C 16.535156 -59.992188 14.851562 -59.796875 12.75 -59.796875 C 10.644531 -59.796875 8.957031 -59.992188 7.6875 -60.390625 C 6.425781 -60.796875 5.546875 -61.5 5.046875 -62.5 C 4.546875 -63.5 4.242188 -64.378906 4.140625 -65.140625 C 4.046875 -65.910156 4 -67.0625 4 -68.59375 C 4 -70.132812 4.046875 -71.285156 4.140625 -72.046875 C 4.242188 -72.816406 4.53125 -73.664062 5 -74.59375 C 5.9375 -76.394531 8.535156 -77.296875 12.796875 -77.296875 C 16.992188 -77.296875 19.53125 -76.394531 20.40625 -74.59375 C 20.9375 -73.59375 21.25 -72.707031 21.34375 -71.9375 C 21.445312 -71.175781 21.5 -70.03125 21.5 -68.5 C 21.5 -66.96875 21.445312 -65.816406 21.34375 -65.046875 C 21.25 -64.285156 20.953125 -63.421875 20.453125 -62.453125 Z M 20.453125 -62.453125 "/></g></g></g><g fill="#ffffff" fill-opacity="1"><g transform="translate(231.184567, 111.100253)"><g/></g></g><g fill="#ffffff" fill-opacity="1"><g transform="translate(257.982121, 111.100253)"><g/></g></g><g fill="#ffffff" fill-opacity="1"><g transform="translate(284.783192, 111.100253)"><g><path d="M 53 -52.09375 C 56.9375 -50.363281 58.90625 -48.265625 58.90625 -45.796875 C 58.90625 -44.597656 58.632812 -43.460938 58.09375 -42.390625 C 57.5625 -41.328125 57.296875 -40.765625 57.296875 -40.703125 L 31.09375 17.90625 C 30.5625 19.164062 30.113281 20.128906 29.75 20.796875 C 29.382812 21.460938 28.800781 22.09375 28 22.6875 C 27.195312 23.289062 26.195312 23.59375 25 23.59375 C 23.800781 23.59375 22.035156 23.09375 19.703125 22.09375 C 15.765625 20.363281 13.796875 18.300781 13.796875 15.90625 C 13.796875 14.300781 17 6.664062 23.40625 -7 L 3.5 -40.5 C 2.164062 -42.695312 1.5 -44.332031 1.5 -45.40625 C 1.5 -47.53125 3.300781 -49.660156 6.90625 -51.796875 C 9.164062 -53.128906 10.925781 -53.796875 12.1875 -53.796875 C 13.457031 -53.796875 14.492188 -53.53125 15.296875 -53 C 16.097656 -52.46875 16.679688 -51.914062 17.046875 -51.34375 C 17.410156 -50.78125 19.242188 -47.679688 22.546875 -42.046875 C 25.847656 -36.410156 29 -31.160156 32 -26.296875 C 32.332031 -27.367188 34.128906 -31.488281 37.390625 -38.65625 C 40.660156 -45.820312 42.410156 -49.632812 42.640625 -50.09375 C 42.878906 -50.5625 43.265625 -51.128906 43.796875 -51.796875 C 44.660156 -52.929688 45.875 -53.5 47.4375 -53.5 C 49.007812 -53.5 50.863281 -53.03125 53 -52.09375 Z M 53 -52.09375 "/></g></g></g><g clip-path="url(#546e2af130)"><g clip-path="url(#8a896504b1)"><path fill="#ffffff" d="M 234.636719 33.132812 L 256.570312 33.132812 L 256.570312 55.070312 L 234.636719 55.070312 Z M 234.636719 33.132812 " fill-opacity="1" fill-rule="nonzero"/></g></g><g clip-path="url(#5a8d791797)"><g clip-path="url(#84fe7ab16b)"><path fill="#ffffff" d="M 234.636719 61.972656 L 256.570312 61.972656 L 256.570312 83.910156 L 234.636719 83.910156 Z M 234.636719 61.972656 " fill-opacity="1" fill-rule="nonzero"/></g></g><g clip-path="url(#09d0a236f7)"><g clip-path="url(#aab2cd86ee)"><path fill="#ffffff" d="M 234.636719 90.816406 L 256.570312 90.816406 L 256.570312 112.75 L 234.636719 112.75 Z M 234.636719 90.816406 " fill-opacity="1" fill-rule="nonzero"/></g></g><g clip-path="url(#984dda59c3)"><g clip-path="url(#973ee63fc7)"><path fill="#ffffff" d="M 266.605469 36.828125 L 281.144531 36.828125 L 281.144531 51.371094 L 266.605469 51.371094 Z M 266.605469 36.828125 " fill-opacity="1" fill-rule="nonzero"/></g></g><g clip-path="url(#0b4f29a6ef)"><g clip-path="url(#9ef3184975)"><path fill="#ffffff" d="M 266.605469 65.671875 L 281.144531 65.671875 L 281.144531 80.214844 L 266.605469 80.214844 Z M 266.605469 65.671875 " fill-opacity="1" fill-rule="nonzero"/></g></g><g clip-path="url(#33dc8492d9)"><g clip-path="url(#b4749453a2)"><path fill="#ffffff" d="M 266.605469 94.511719 L 281.144531 94.511719 L 281.144531 109.054688 L 266.605469 109.054688 Z M 266.605469 94.511719 " fill-opacity="1" fill-rule="nonzero"/></g></g></svg>